<?xml version="1.0" encoding="UTF-8"?>
<svg xmlns="http://www.w3.org/2000/svg" width="83" height="40" viewBox="0 0 83 40" fill="none">
  <path d="M17.0218 0H65.9714V0.0066313C70.6589 0.0066313 74.9177 1.87003 77.9928 4.87401C81.0747 7.87798 82.9864 12.0292 82.9864 16.5981H83H82.9932C82.9932 21.1671 81.0815 25.3183 77.9996 28.3157C74.9177 31.3196 70.6589 33.183 65.9782 33.183V33.1897H17.0218V33.183C12.3343 33.183 8.07549 31.3196 4.99361 28.3157C1.91172 25.3183 0 21.1671 0 16.5981H0.00680328C0.00680328 12.0292 1.91852 7.87798 5.00041 4.87401C8.0823 1.87003 12.3411 0.0066313 17.0286 0.0066313L17.0218 0ZM65.9714 3.79973H17.0218V3.7931C13.4161 3.7931 10.1369 5.23873 7.74893 7.55968C5.36098 9.88727 3.88467 13.0836 3.88467 16.5981H3.89148H3.88467C3.88467 20.1127 5.36779 23.309 7.74893 25.6366C10.1369 27.9576 13.4161 29.4032 17.0218 29.4032V29.3966H65.9714V29.4032C69.5771 29.4032 72.8563 27.9576 75.2443 25.6366C77.6322 23.309 79.1153 20.1127 79.1153 16.5981H79.1085H79.1153C79.1153 13.0836 77.6322 9.88727 75.2443 7.55968C72.8563 5.2321 69.5771 3.7931 65.9714 3.79973Z" fill="#014C8F"></path>
  <path d="M50.2426 19.6355C49.8821 22.056 48.9092 23.9326 47.3104 25.2655C45.7117 26.605 43.6503 27.2682 41.1194 27.2682C38.092 27.2682 35.6496 26.3066 33.7923 24.3769C31.935 22.4472 31.0098 19.9141 31.0098 16.7708C31.0098 13.5016 31.9486 10.8889 33.8399 8.93926C35.7312 6.99629 38.2621 6.02148 41.4256 6.02148C43.936 6.02148 45.9906 6.66472 47.5826 7.95119C49.1745 9.23766 50.0794 10.995 50.3039 13.2297H45.3239C45.0789 12.2615 44.6163 11.5321 43.936 11.0414C43.2557 10.5507 42.3644 10.3053 41.2555 10.3053C39.7792 10.3053 38.6022 10.8756 37.745 12.0228C36.881 13.1634 36.4456 14.7218 36.4456 16.7045C36.4456 18.6806 36.8538 20.2125 37.6702 21.3066C38.4866 22.3942 39.6363 22.9446 41.1194 22.9446C42.31 22.9446 43.2625 22.6594 43.9836 22.0958C44.698 21.5321 45.147 20.7032 45.3239 19.6289H50.2426V19.6355Z" fill="#014C8F"></path>
  <path d="M56.1538 16.6307C56.1538 18.6864 56.5824 20.2647 57.4396 21.3589C58.2969 22.4597 59.5282 23.0034 61.1338 23.0034C62.7462 23.0034 63.9844 22.4597 64.8552 21.3589C65.726 20.2647 66.1546 18.6864 66.1546 16.6307C66.1546 14.5883 65.726 13.0101 64.8552 11.9093C63.9844 10.8085 62.7462 10.2581 61.1338 10.2581C59.5282 10.2581 58.3037 10.8085 57.4396 11.9093C56.5756 12.9968 56.1538 14.575 56.1538 16.6307ZM50.7656 16.6307C50.7656 13.3483 51.6977 10.762 53.555 8.85223C55.4123 6.94905 57.9363 5.99414 61.127 5.99414C64.3246 5.99414 66.8622 6.94905 68.7467 8.85886C70.6244 10.7753 71.5632 13.3615 71.5632 16.6307C71.5632 19.9066 70.6244 22.4928 68.7467 24.4093C66.8622 26.3191 64.3246 27.274 61.127 27.274C57.9363 27.274 55.4191 26.3191 53.555 24.4159C51.6977 22.5061 50.7656 19.9132 50.7656 16.6307Z" fill="#014C8F"></path>
  <path d="M29.1654 14.2227H20.6953V18.2677H29.1654V14.2227Z" fill="#ED1C24"></path>
  <path fill-rule="evenodd" clip-rule="evenodd" d="M14.3281 26.7033V6.51758H30.0641V10.6555H19.6279V22.5786H30.4043V26.7033H14.3281Z" fill="#014C8F"></path>
  <path d="M11.7976 38.4284V39.8873H10.9336V35.8555H12.8249C13.2263 35.8555 13.5461 35.9682 13.7706 36.2003C13.9951 36.4324 14.1107 36.7441 14.1107 37.1486C14.1107 37.4337 14.0291 37.6923 13.8726 37.9244C13.6413 38.2626 13.2807 38.4284 12.7909 38.4284H11.7976ZM11.7976 37.7321H12.6004C12.8793 37.7321 13.063 37.6459 13.1651 37.4868C13.2195 37.4006 13.2467 37.2679 13.2467 37.1022C13.2467 36.9098 13.1855 36.7706 13.0698 36.6844C12.9474 36.5982 12.7569 36.5584 12.4915 36.5584H11.7976V37.7321Z" fill="#014C8F"></path>
  <path d="M17.5526 38.0777H15.9402V39.8814H15.0762V35.8496H15.9402V37.3748H17.5526V35.8496H18.4166V39.8814H17.5526V38.0777Z" fill="#014C8F"></path>
  <path d="M20.3556 39.0584L20.0698 39.8873H19.1582L20.6413 35.8555H21.6482L23.0905 39.8873H22.1584L21.8931 39.0584H20.3556ZM20.5869 38.3621H21.6482L21.1312 36.764L20.5869 38.3621Z" fill="#014C8F"></path>
  <path d="M23.8184 39.8873V35.8555H25.9138C26.39 35.8555 26.7438 36.0014 26.9683 36.2865C27.1316 36.4921 27.2132 36.7242 27.2132 36.9894C27.2132 37.2215 27.1588 37.4205 27.0431 37.5929C26.9275 37.7653 26.771 37.8913 26.5669 37.9576C26.7574 38.0372 26.8934 38.1366 26.9615 38.2361C27.0567 38.382 27.0975 38.6274 27.0975 38.9788C27.0975 39.2573 27.1043 39.4496 27.1111 39.5557C27.1179 39.6618 27.1792 39.7348 27.2812 39.7746V39.8873H26.3288C26.2948 39.7812 26.2743 39.6751 26.2539 39.5557C26.2403 39.443 26.2335 39.2772 26.2335 39.065C26.2335 38.76 26.1995 38.5677 26.1315 38.4748C26.043 38.3621 25.8525 38.3024 25.5464 38.3024H24.662V39.8873H23.8184ZM24.6688 37.6327H25.6825C25.9138 37.6327 26.0839 37.5929 26.1927 37.5067C26.2948 37.4205 26.3492 37.2812 26.3492 37.0823C26.3492 36.943 26.3084 36.8303 26.2335 36.7441C26.1247 36.6181 25.9682 36.5584 25.7369 36.5584H24.662V37.6327H24.6688Z" fill="#014C8F"></path>
  <path d="M32.2757 35.8555V39.8873H31.4729V36.5186L30.6906 39.8873H29.8401L29.0918 36.5186L29.085 39.8873H28.2754V35.8555H29.5272L30.2756 39.0319L31.0307 35.8555H32.2757Z" fill="#014C8F"></path>
  <path d="M34.215 39.0584L33.9292 39.8873H33.0176L34.5007 35.8555H35.5076L36.9431 39.8873H36.011L35.7457 39.0584H34.215ZM34.4463 38.3621H35.5076L34.9905 36.764L34.4463 38.3621Z" fill="#014C8F"></path>
  <path d="M41.1815 37.1691H40.3175C40.2631 36.9768 40.1882 36.8309 40.1066 36.7381C39.9501 36.5657 39.7188 36.4728 39.4059 36.4728C39.1405 36.4728 38.916 36.5657 38.7391 36.7447C38.501 36.9901 38.3854 37.368 38.3854 37.8853C38.3854 38.2765 38.4602 38.5948 38.6167 38.8402C38.8004 39.1187 39.0589 39.258 39.4059 39.258C39.644 39.258 39.8481 39.1916 40.0045 39.0657C40.161 38.9397 40.2699 38.7473 40.3175 38.5086H41.1815C41.0863 38.9662 40.8958 39.3243 40.61 39.5829C40.2971 39.8614 39.8889 40.0007 39.3855 40.0007C38.8208 40.0007 38.3718 39.8216 38.0316 39.4635C37.671 39.0855 37.4941 38.555 37.4941 37.8786C37.4941 37.2023 37.6778 36.6651 38.0452 36.2871C38.3922 35.929 38.8412 35.75 39.3923 35.75C39.9569 35.75 40.4127 35.9158 40.7529 36.2407C41.0386 36.5126 41.1815 36.8243 41.1815 37.1691Z" fill="#014C8F"></path>
  <path d="M45.209 35.8555V36.565H43.0184V37.4205H45.0322V38.13H43.0184V39.1777H45.3111V39.8939H42.168V35.8621H45.209V35.8555Z" fill="#014C8F"></path>
  <path d="M49.61 35.8555V38.4682C49.61 38.9921 49.4603 39.3767 49.161 39.6353C48.8753 39.874 48.4534 40 47.9092 40C47.6779 40 47.4602 39.9669 47.2561 39.9072C46.9839 39.821 46.7662 39.6884 46.603 39.5093C46.3853 39.264 46.2832 38.939 46.2832 38.5345V35.8621H47.1676V38.4748C47.1676 38.7401 47.2425 38.939 47.3717 39.0783C47.5078 39.2175 47.6847 39.2839 47.9024 39.2839C48.1881 39.2839 48.3922 39.2175 48.5283 39.0849C48.6644 38.9523 48.7256 38.7666 48.7256 38.508V35.8621H49.61V35.8555Z" fill="#014C8F"></path>
  <path d="M52.3932 36.565V39.8873H51.5291V36.565H50.2773V35.8555H53.6382V36.565H52.3932Z" fill="#014C8F"></path>
  <path d="M55.2703 35.8555V39.8873H54.4062V35.8555H55.2703Z" fill="#014C8F"></path>
  <path d="M59.8143 37.1691H58.9503C58.8959 36.9768 58.8211 36.8309 58.7394 36.7381C58.5829 36.5657 58.3516 36.4728 58.0455 36.4728C57.7733 36.4728 57.5488 36.5657 57.372 36.7447C57.1338 36.9901 57.0182 37.368 57.0182 37.8853C57.0182 38.2765 57.093 38.5948 57.2495 38.8402C57.4264 39.1187 57.6917 39.258 58.0387 39.258C58.2768 39.258 58.4741 39.1916 58.6374 39.0657C58.7938 38.9397 58.9027 38.7473 58.9503 38.5086H59.8143C59.7191 38.9662 59.5286 39.3243 59.2429 39.5829C58.9231 39.8614 58.5217 40.0007 58.0183 40.0007C57.4536 40.0007 57.0046 39.8216 56.6644 39.4635C56.3106 39.0855 56.127 38.555 56.127 37.8786C56.127 37.2023 56.3106 36.6651 56.678 36.2871C57.025 35.929 57.474 35.75 58.0251 35.75C58.5965 35.75 59.0524 35.9158 59.3857 36.2407C59.6715 36.5126 59.8143 36.8243 59.8143 37.1691Z" fill="#014C8F"></path>
  <path d="M61.5704 39.0584L61.2847 39.8873H60.373L61.8562 35.8555H62.8631L64.3053 39.8873H63.3665L63.1012 39.0584H61.5704ZM61.8017 38.3621H62.8631L62.346 36.764L61.8017 38.3621Z" fill="#014C8F"></path>
  <path d="M65.8972 35.8555V39.1579H67.9586V39.8873H65.0332V35.8555H65.8972Z" fill="#014C8F"></path>
  <path d="M68.666 38.6413H69.496C69.496 38.807 69.5436 38.9397 69.6457 39.0524C69.7954 39.2182 70.0403 39.2911 70.3736 39.2911C70.6254 39.2911 70.8159 39.258 70.9519 39.1983C71.1356 39.1121 71.2309 38.9728 71.2309 38.7805C71.2309 38.6412 71.1628 38.5285 71.0268 38.4489C70.9315 38.3959 70.7478 38.3362 70.4825 38.2765L70.0335 38.1771C69.5913 38.0776 69.2919 37.9781 69.1286 37.8654C68.8565 37.6797 68.7204 37.3946 68.7204 36.9967C68.7204 36.685 68.8157 36.4198 69.0198 36.2076C69.2919 35.9025 69.7205 35.75 70.3124 35.75C70.8771 35.75 71.2989 35.9092 71.5914 36.2142C71.8159 36.4529 71.9248 36.7314 71.9248 37.0497H71.0948C71.0744 36.8906 71.0268 36.7646 70.9519 36.6784C70.8159 36.5192 70.5777 36.4397 70.258 36.4397C70.0607 36.4397 69.8974 36.4794 69.7681 36.5458C69.6117 36.632 69.5368 36.758 69.5368 36.9237C69.5368 37.063 69.5845 37.1691 69.6865 37.2354C69.7409 37.2752 69.8362 37.315 69.9722 37.3481L70.9791 37.5802C71.3193 37.6664 71.571 37.7725 71.7411 37.8985C71.9588 38.0776 72.0677 38.3296 72.0677 38.6678C72.0677 39.0789 71.9316 39.3906 71.6527 39.6161C71.3465 39.868 70.9383 39.994 70.4349 39.994C69.7681 39.994 69.2851 39.8349 68.9858 39.5033C68.7749 39.2779 68.666 38.9861 68.666 38.6413Z" fill="#014C8F"></path>
</svg>
